<svg xmlns="http://www.w3.org/2000/svg" height="800" width="1200" viewBox="-37.5 -26.342 325 158.052"><defs><linearGradient id="b" spreadMethod="pad" gradientTransform="translate(313.633 62.413) scale(24.93354)" gradientUnits="userSpaceOnUse" y2="0" x2="1" y1="0" x1="0"><stop offset="0" stop-color="#fff"/><stop offset=".554" stop-color="#00adef"/><stop offset="1" stop-color="#00adef"/></linearGradient><linearGradient id="a" spreadMethod="pad" gradientTransform="translate(312.828 57.942) scale(26.36794)" gradientUnits="userSpaceOnUse" y2="0" x2="1" y1="0" x1="0"><stop offset="0" stop-color="#fff"/><stop offset=".554" stop-color="#f2581a"/><stop offset="1" stop-color="#f2581a"/></linearGradient></defs><path d="M80.168 42.792l1.531-5.03c.195-.655.365-1.383.39-1.87h.023c.049.534.244 1.263.461 1.894l1.677 5.006zm3.864-9.985h-6v2.38h1.433l-4.252 12.996h3.329l.947-3.108h5.539l1.044 3.108h3.499zm11.662 14.916c-.462.316-1.263.606-2.139.606-.995 0-1.676-.29-2.064-.825-.316-.439-.438-1.117-.438-1.895V33.852h-1.409v-2.284h4.64v13.896c0 .51.194.728.584.728.29 0 .728-.17.922-.316zM106.6 45.9l-.17 2.284h-9.11v-1.748l5.273-7.75h-5.15v-2.284h8.769v1.773l-5.247 7.726zm12.415 2.284h-3.231v-7.19c0-.778-.073-1.289-.388-1.725-.316-.414-.826-.655-1.53-.655-.779 0-1.313.316-1.653.752-.39.51-.486 1.166-.486 2.066v6.752h-3.23V31.568h3.23v5.708c.656-.63 1.676-1.093 3.037-1.093 1.384 0 2.501.39 3.23 1.142.753.8 1.02 1.824 1.02 3.16zm7.263-9.814c-1.239 0-2.187.947-2.283 3.134h4.299c.17 0 .22-.073.22-.243 0-1.847-.851-2.891-2.236-2.891m3.887 4.98h-6.123c.219 1.894 1.385 2.818 3.183 2.818 1.362 0 2.842-.485 3.862-1.19l-.12 2.21c-1.117.802-2.818 1.215-4.397 1.215-3.765 0-5.854-2.381-5.854-6.048 0-3.888 2.259-6.17 5.562-6.17 3.206 0 5.346 2.136 5.346 5.415 0 1.263-.365 1.75-1.46 1.75m5.419-8.357c-.996 0-1.822-.801-1.822-1.797 0-.995.8-1.798 1.798-1.798.995 0 1.772.803 1.772 1.798 0 .996-.752 1.797-1.748 1.797m3.086 12.73c-.462.315-1.265.606-2.139.606-.996 0-1.676-.291-2.066-.825-.314-.438-.436-1.117-.436-1.894v-6.923h-1.409v-2.284h4.64v9.061c0 .51.195.73.581.73.293 0 .73-.172.924-.316zm19.7.461h-3.23v-7.19c0-.754-.023-1.265-.365-1.725-.316-.414-.85-.655-1.483-.655-.68 0-1.238.291-1.578.728-.365.486-.485 1.116-.485 2.04v6.802h-3.232v-7.19c0-.754-.023-1.265-.363-1.725-.317-.414-.851-.655-1.483-.655-.681 0-1.24.291-1.58.728-.364.486-.485 1.116-.485 2.04v6.802h-3.23v-9.499h-1.41v-2.283h3.329l.583 1.506c.68-.995 1.943-1.725 3.717-1.725 1.505 0 2.793.438 3.546 1.604.704-.899 1.918-1.604 3.595-1.604 1.58 0 2.818.535 3.474 1.482.461.657.68 1.484.68 2.843zm7.265-9.814c-1.239 0-2.187.947-2.283 3.134h4.298c.17 0 .22-.073.22-.243 0-1.847-.85-2.891-2.235-2.891m3.886 4.98h-6.122c.219 1.894 1.383 2.818 3.183 2.818 1.36 0 2.842-.485 3.862-1.19l-.12 2.21c-1.119.802-2.82 1.215-4.397 1.215-3.767 0-5.854-2.381-5.854-6.048 0-3.888 2.259-6.17 5.562-6.17 3.206 0 5.344 2.136 5.344 5.415 0 1.263-.365 1.75-1.458 1.75m10.154-4.543a5.76 5.76 0 00-.947-.073c-.705 0-1.289.195-1.677.656-.462.559-.582 1.287-.582 2.308v6.485h-3.231v-9.497h-1.408v-2.283h3.375l.583 1.652c.584-1.167 1.773-1.871 3.135-1.871.29 0 .532.024.752.072zm1.774.291l-.851-.947c.924-.655 1.65-1.75 1.774-2.477-.73-.195-1.312-.728-1.312-1.556 0-.849.63-1.577 1.628-1.577 1.093 0 1.774.752 1.774 1.917 0 1.702-1.24 3.766-3.013 4.64m9.158 9.305c-1.482 0-3.084-.267-4.276-.802l.195-2.43c1.02.609 2.673 1.022 3.86 1.022 1.265 0 1.995-.389 1.995-1.167 0-2.064-6.099-.778-6.099-5.125 0-2.333 1.993-3.718 4.858-3.718 1.118 0 2.455.196 3.305.51v2.285a8.282 8.282 0 00-3.086-.608c-1.214 0-2.088.436-2.088 1.214 0 1.894 6.096.827 6.096 5.102 0 2.479-2.064 3.717-4.76 3.717M84.348 55.72c-.535-.485-1.385-.655-2.672-.655h-1.628v5.368h2.114c2.041 0 2.842-.948 2.842-2.744 0-.875-.218-1.556-.656-1.97m4.883 12.025c-.437.268-1.264.511-1.994.511-1.7 0-2.429-.705-3.278-2.139l-2.09-3.521h-1.821v5.465h-3.376V55.065h-1.484v-2.382h6.754c2.114 0 3.547.293 4.592.948 1.287.826 1.968 2.113 1.968 3.838 0 2.453-1.142 4.033-3.086 4.69l1.75 2.986c.315.558.632.755 1.117.755.412 0 .825-.171 1.142-.366zm6.632-9.498c-1.24 0-2.187.949-2.283 3.134h4.3c.169 0 .217-.072.217-.243 0-1.847-.85-2.89-2.234-2.89m3.886 4.98h-6.122c.219 1.894 1.385 2.817 3.183 2.817 1.362 0 2.842-.485 3.864-1.19l-.122 2.21c-1.118.804-2.82 1.216-4.397 1.216-3.767 0-5.855-2.38-5.855-6.049 0-3.886 2.26-6.17 5.563-6.17 3.206 0 5.344 2.137 5.344 5.415 0 1.265-.364 1.751-1.457 1.751m7.409 5.053c-1.482 0-3.084-.268-4.276-.803l.193-2.427c1.021.606 2.674 1.02 3.864 1.02 1.263 0 1.992-.39 1.992-1.168 0-2.064-6.098-.778-6.098-5.125 0-2.332 1.993-3.718 4.858-3.718 1.117 0 2.453.196 3.305.51v2.285a8.282 8.282 0 00-3.086-.608c-1.214 0-2.089.437-2.089 1.216 0 1.894 6.097.826 6.097 5.1 0 2.479-2.064 3.718-4.76 3.718m11.394-10.034c-1.24 0-2.186.949-2.285 3.134h4.302c.168 0 .217-.072.217-.243 0-1.847-.851-2.89-2.234-2.89m3.886 4.98h-6.122c.219 1.894 1.385 2.817 3.184 2.817 1.359 0 2.841-.485 3.862-1.19l-.123 2.21c-1.117.804-2.816 1.216-4.397 1.216-3.764 0-5.853-2.38-5.853-6.049 0-3.886 2.258-6.17 5.563-6.17 3.207 0 5.344 2.137 5.344 5.415 0 1.265-.363 1.751-1.458 1.751m9.888-.705c-.366-.146-1.069-.29-1.677-.29-1.408 0-2.065.85-2.065 1.99 0 1.288.729 1.968 1.846 1.968.582 0 1.094-.22 1.41-.56.315-.34.486-.85.486-1.48zm4.616 5.078c-.487.34-1.29.605-2.163.605-.996 0-1.823-.412-2.089-1.238-.632.826-1.87 1.313-3.184 1.313-2.502 0-4.177-1.386-4.177-3.911 0-2.624 1.847-3.985 4.615-3.985.85 0 1.774.17 2.382.389v-.315c0-.778-.098-1.263-.462-1.677-.364-.414-1.02-.632-1.967-.632-1.143 0-2.382.293-3.524.875V56.84c1.118-.511 2.575-.78 4.033-.78 1.847 0 3.208.39 4.105 1.24.73.68 1.045 1.653 1.045 3.013v5.03c0 .509.17.728.559.728.29 0 .752-.172.947-.316zm8.332-8.916a5.936 5.936 0 00-.947-.073c-.705 0-1.288.195-1.676.657-.462.558-.582 1.287-.582 2.307v6.486h-3.233v-9.499h-1.408V56.28h3.376l.584 1.653c.583-1.166 1.774-1.871 3.134-1.871.292 0 .534.022.752.071zm8.065 1.749c-.292-1.362-.73-2.187-1.87-2.187-1.556 0-2.284 1.58-2.284 3.765 0 2.672.972 4.01 3.084 4.01 1.216 0 2.6-.462 3.62-1.143l-.12 2.284c-.996.655-2.576 1.117-4.13 1.117-3.62 0-5.734-2.163-5.734-6.048 0-3.766 2.041-6.17 5.54-6.17 1.288 0 2.405.34 3.255.97.826.633 1.336 1.605 1.579 2.794zm15.355 7.627h-3.233v-7.189c0-.778-.072-1.289-.387-1.725-.318-.414-.826-.655-1.531-.655-.778 0-1.312.314-1.65.752-.391.51-.489 1.166-.489 2.064v6.754h-3.23V51.444h3.23v5.71c.657-.633 1.676-1.094 3.037-1.094 1.385 0 2.504.388 3.232 1.143.754.801 1.021 1.821 1.021 3.157zM88.453 82.253c0 1.724-.292 3.013-1.093 4.033-.972 1.237-2.599 1.894-4.955 1.894-2.14 0-3.742-.534-4.738-1.627-.924-1.02-1.239-2.211-1.239-4.178v-9.814h3.4v9.668c0 1.215.147 1.943.56 2.478.413.533 1.117.85 2.089.85.995 0 1.652-.316 2.064-.802.51-.63.608-1.506.608-2.502v-9.692h3.304zm15.621 5.369c-.413.267-1.313.51-2.065.51-1.457 0-2.308-.681-3.23-2.357l-2.26-4.13H94.77v6.293h-3.377V72.561h3.377v6.364h1.943l3.279-6.364h3.401l-3.985 7.507 2.65 4.809c.34.607.632.898 1.215.898.34 0 .801-.144.996-.291z" fill="#3f153b"/><path d="M82.384 97.86h-2.496v7.384h-1.919V97.86h-2.498v-1.35h6.913zm6.816 7.383h-1.834v-4.084c0-.441-.042-.73-.22-.98-.18-.234-.47-.372-.87-.372-.442 0-.746.18-.94.428-.22.29-.275.662-.275 1.173v3.835h-1.836v-9.438h1.836v3.243c.373-.358.952-.62 1.725-.62.786 0 1.421.22 1.834.647.429.456.58 1.035.58 1.794zm4.015-5.575c-.704 0-1.241.538-1.297 1.781h2.443c.095 0 .124-.042.124-.138 0-1.05-.484-1.643-1.27-1.643m2.209 2.83h-3.479c.124 1.076.788 1.6 1.808 1.6.774 0 1.615-.277 2.195-.677l-.07 1.257c-.634.455-1.6.689-2.497.689-2.138 0-3.326-1.353-3.326-3.436 0-2.207 1.283-3.504 3.16-3.504 1.822 0 3.035 1.214 3.035 3.077 0 .718-.206.993-.826.993m9.05-4.332c-.358-.235-.73-.304-1.407-.304h-.856v3.284h.884c1.255 0 1.959-.345 1.959-1.683 0-.58-.179-1.035-.58-1.297m1.312 3.781c-.608.358-1.421.51-2.429.51h-1.146v2.786h-1.918v-7.381h-.842v-1.352h3.575c1.16 0 2.07.097 2.773.483.772.429 1.227 1.173 1.227 2.43 0 1.226-.427 2.054-1.24 2.524m4.884-2.263c-.855 0-1.394.593-1.394 2.22 0 1.629.539 2.21 1.394 2.21.855 0 1.393-.581 1.393-2.21 0-1.627-.538-2.22-1.393-2.22m0 5.685c-2.098 0-3.256-1.297-3.256-3.464s1.158-3.477 3.256-3.477c2.097 0 3.256 1.31 3.256 3.477s-1.16 3.464-3.256 3.464m12.708-6.817l-2.209 6.693h-1.435l-1.062-3.313-1.09 3.313h-1.394l-2.317-6.693h1.808l1.13 3.52c.138.426.236.785.262 1.145.027-.346.111-.719.262-1.16l.704-2.126-.442-1.379h1.67l1.035 3.49c.124.43.222.815.235 1.202.027-.373.125-.773.249-1.201l1.048-3.49zm3.118 1.117c-.704 0-1.242.538-1.297 1.781h2.442c.096 0 .125-.042.125-.138 0-1.05-.484-1.643-1.27-1.643m2.209 2.83h-3.479c.124 1.076.788 1.6 1.808 1.6.774 0 1.615-.277 2.195-.677l-.07 1.257c-.634.455-1.6.689-2.497.689-2.139 0-3.326-1.353-3.326-3.436 0-2.207 1.283-3.504 3.16-3.504 1.822 0 3.035 1.214 3.035 3.077 0 .718-.206.993-.826.993m5.655-2.58a3.383 3.383 0 00-.537-.04c-.4 0-.732.109-.952.37-.262.318-.331.733-.331 1.311v3.686h-1.836v-5.396h-.8v-1.297h1.919l.33.938c.331-.662 1.007-1.062 1.78-1.062.166 0 .304.015.428.04zm7.658 5.009c-.386.262-1.048.441-1.67.441-.648 0-1.2-.206-1.517-.537-.345-.373-.47-.857-.47-1.725v-3.258h-1.048v-1.296h1.048v-1.655l1.836-.456v2.11h1.546v1.297h-1.546v3.23c0 .634.165.98.731.98.386 0 .815-.166 1.13-.36zm3.726-5.243c-.855 0-1.394.593-1.394 2.22 0 1.629.539 2.21 1.394 2.21.855 0 1.393-.581 1.393-2.21 0-1.627-.538-2.22-1.393-2.22m0 5.685c-2.098 0-3.256-1.297-3.256-3.464s1.158-3.477 3.256-3.477c2.096 0 3.255 1.31 3.255 3.477s-1.159 3.464-3.255 3.464m11.631-7.079c-.413-.303-1.021-.428-1.82-.428h-.705v6.03h.884c.675 0 1.228-.138 1.6-.4.676-.483.87-1.394.87-2.677 0-1.284-.236-2.083-.829-2.525m.717 6.555c-.69.275-1.517.4-2.483.4h-2.677V97.86h-.842v-1.35h3.464c1.408 0 2.456.193 3.229.702.994.664 1.463 1.836 1.463 3.699 0 2.152-.774 3.367-2.154 3.933m5.808-5.176c-.703 0-1.24.538-1.296 1.781h2.443c.095 0 .124-.042.124-.138 0-1.05-.484-1.643-1.27-1.643m2.209 2.83h-3.479c.124 1.076.788 1.6 1.808 1.6a4.08 4.08 0 002.195-.677l-.069 1.257c-.635.455-1.6.689-2.498.689-2.138 0-3.326-1.353-3.326-3.436 0-2.207 1.284-3.504 3.16-3.504 1.822 0 3.036 1.214 3.036 3.077 0 .718-.207.993-.827.993m5.905-5.408a3.609 3.609 0 00-1.118-.193c-.303 0-.523.083-.649.248-.123.151-.178.386-.178.731v.677h1.628v1.295h-1.628v5.396h-1.836v-5.396h-1.049v-1.295h1.049v-.608c0-.746.11-1.284.497-1.697.373-.4.98-.608 1.794-.608.469 0 1.104.11 1.49.25zm3.048 2.579c-.703 0-1.241.538-1.296 1.781h2.442c.096 0 .124-.042.124-.138 0-1.05-.483-1.643-1.27-1.643m2.21 2.83h-3.48c.125 1.076.788 1.6 1.808 1.6.774 0 1.616-.277 2.196-.677l-.07 1.257c-.634.455-1.6.689-2.497.689-2.139 0-3.326-1.353-3.326-3.436 0-2.207 1.283-3.504 3.16-3.504 1.822 0 3.035 1.214 3.035 3.077 0 .718-.207.993-.827.993m5.505-.4a2.96 2.96 0 00-.952-.166c-.8 0-1.173.484-1.173 1.132 0 .73.413 1.117 1.048 1.117.333 0 .622-.123.801-.316.18-.193.276-.484.276-.843zm2.622 2.884c-.277.193-.732.345-1.228.345-.566 0-1.036-.235-1.186-.704-.36.469-1.063.746-1.807.746-1.423 0-2.375-.786-2.375-2.222 0-1.49 1.05-2.263 2.622-2.263a4.3 4.3 0 011.352.222v-.18c0-.442-.054-.717-.262-.952-.207-.234-.58-.359-1.117-.359-.649 0-1.352.165-2 .496v-1.24c.634-.29 1.46-.442 2.289-.442 1.05 0 1.821.222 2.332.704.414.386.594.939.594 1.71v2.857c0 .29.096.415.318.415.164 0 .426-.097.537-.18zm4.801-.055c-.386.262-1.048.441-1.67.441-.648 0-1.2-.206-1.516-.537-.346-.373-.47-.857-.47-1.725v-3.258h-1.049v-1.296h1.048v-1.655l1.836-.456v2.11h1.546v1.297h-1.546v3.23c0 .634.165.98.731.98.387 0 .815-.166 1.13-.36zm8.43-6.637c-.413-.303-1.02-.428-1.82-.428h-.705v6.03h.884c.675 0 1.228-.138 1.6-.4.676-.483.87-1.394.87-2.677 0-1.284-.236-2.083-.829-2.525m.718 6.555c-.69.275-1.517.4-2.483.4h-2.678V97.86h-.841v-1.35h3.463c1.408 0 2.456.193 3.229.702.994.664 1.463 1.836 1.463 3.699 0 2.152-.774 3.367-2.153 3.933m5.822-5.176c-.703 0-1.241.538-1.296 1.781h2.442c.096 0 .124-.042.124-.138 0-1.05-.483-1.643-1.27-1.643m2.21 2.83h-3.48c.125 1.076.788 1.6 1.808 1.6a4.08 4.08 0 002.195-.677l-.069 1.257c-.635.455-1.6.689-2.498.689-2.138 0-3.326-1.353-3.326-3.436 0-2.207 1.284-3.504 3.16-3.504 1.823 0 3.036 1.214 3.036 3.077 0 .718-.207.993-.827.993m11.948 2.746h-1.835v-4.084c0-.428-.015-.717-.206-.98-.18-.234-.484-.372-.842-.372-.388 0-.704.166-.897.413-.208.277-.276.635-.276 1.16v3.863h-1.836v-4.084c0-.428-.015-.717-.206-.98-.18-.234-.484-.372-.842-.372a1.12 1.12 0 00-.897.413c-.207.277-.276.635-.276 1.16v3.863h-1.836v-5.396h-.8V98.55h1.89l.331.857c.387-.566 1.104-.98 2.112-.98.855 0 1.586.248 2.014.911.4-.512 1.09-.91 2.043-.91.895 0 1.6.302 1.972.84.262.373.387.841.387 1.614zm4.001-5.575c-.703 0-1.241.538-1.297 1.781h2.443c.096 0 .124-.042.124-.138 0-1.05-.483-1.643-1.27-1.643m2.21 2.83h-3.48c.125 1.076.788 1.6 1.808 1.6a4.08 4.08 0 002.195-.677l-.068 1.257c-.635.455-1.601.689-2.498.689-2.139 0-3.326-1.353-3.326-3.436 0-2.207 1.283-3.504 3.16-3.504 1.822 0 3.035 1.214 3.035 3.077 0 .718-.207.993-.827.993m7.975 2.746h-1.836v-4.084c0-.441-.04-.73-.22-.98-.18-.234-.469-.372-.87-.372-.44 0-.745.18-.938.428-.222.29-.276.662-.276 1.173v3.835h-1.835v-5.396h-.8v-1.296h1.89l.33.856c.442-.594 1.173-.98 2.14-.98.787 0 1.422.22 1.835.648.427.456.58 1.035.58 1.794zm5.325-.317c-.386.262-1.048.441-1.67.441-.648 0-1.2-.206-1.517-.537-.345-.373-.47-.857-.47-1.725v-3.258h-1.048v-1.296h1.048v-1.655l1.836-.456v2.11h1.546v1.297h-1.546v3.23c0 .634.165.98.731.98.386 0 .815-.166 1.13-.36zm2.083-7.176a1.03 1.03 0 01-1.034-1.02c0-.565.455-1.02 1.021-1.02.565 0 1.007.455 1.007 1.02s-.427 1.02-.993 1.02m1.752 7.23c-.262.18-.717.345-1.215.345-.564 0-.95-.164-1.172-.468-.18-.249-.249-.634-.249-1.076v-3.934h-.8v-1.296h2.636v5.147c0 .29.11.414.331.414.165 0 .413-.097.524-.18zm4.636-2.883a2.96 2.96 0 00-.953-.166c-.8 0-1.172.484-1.172 1.132 0 .73.413 1.117 1.048 1.117.333 0 .622-.123.801-.316.18-.193.276-.484.276-.843zm2.622 2.884c-.277.193-.732.345-1.228.345-.566 0-1.036-.235-1.186-.704-.36.469-1.063.746-1.808.746-1.422 0-2.375-.786-2.375-2.222 0-1.49 1.05-2.263 2.623-2.263.483 0 1.007.097 1.352.222v-.18c0-.442-.054-.717-.262-.952-.207-.234-.58-.359-1.117-.359-.649 0-1.353.165-2.001.496v-1.24c.635-.29 1.462-.442 2.29-.442 1.05 0 1.82.222 2.331.704.415.386.595.939.595 1.71v2.857c0 .29.096.415.317.415.165 0 .427-.097.538-.18z" fill="#f2581a"/><path d="M336.95 53.61l-24.122 8.841 14.163-2.782.366-.09 9.292-5.755c.207-.17.477-.287.756-.349.147-.032.294-.043.438-.039-.026 0-.053-.003-.08-.003a1.81 1.81 0 00-.813.177" fill="url(#a)" transform="translate(-1197.947 -204.616) scale(3.8294)"/><path d="M338.187 56.899l-.474.117-10.356 2.562-13.723 8.48 24.495-11.072.438-.217z" fill="url(#b)" transform="translate(-1197.947 -204.616) scale(3.8294)"/><path d="M97.11 13.272a6.736 6.736 0 005.12-6.536c0-3.618-2.855-6.563-6.437-6.722a6.685 6.685 0 00-1.678.15c-1.07.235-2.102.683-2.896 1.335l-35.58 22.035 39.657-9.813z" fill="#3f153b"/></svg>